<?xml version="1.0" encoding="iso-8859-1"?>
<!-- Generator: Adobe Illustrator 21.0.0, SVG Export Plug-In . SVG Version: 6.00 Build 0)  -->
<svg version="1.1" id="Capa_1" xmlns="http://www.w3.org/2000/svg" xmlns:xlink="http://www.w3.org/1999/xlink" x="0px" y="0px"
	 viewBox="0 0 512 512" style="enable-background:new 0 0 512 512;" xml:space="preserve">
<path style="fill:#4E5A61;" d="M445.333,380.426c-12.934,67.579-66.109,117.257-129.963,128.939
	c-19.174,3.518-39.31,3.601-59.601-0.279c-87.87-16.814-145.474-101.684-128.659-189.554
	c16.711-87.363,100.69-144.812,188.022-128.939c0.507,0.083,1.024,0.176,1.542,0.279
	C404.544,207.686,462.148,292.555,445.333,380.426z"/>
<path style="fill:#5F6C75;" d="M445.333,380.426c-12.934,67.579-66.109,117.257-129.963,128.939
	c-0.507-0.083-1.024-0.176-1.542-0.279c-87.87-16.814-145.474-101.684-128.659-189.554
	c12.934-67.589,66.109-117.267,129.963-128.939c0.507,0.083,1.024,0.176,1.542,0.279
	C404.544,207.686,462.148,292.555,445.333,380.426z"/>
<path style="fill:#A2ABB8;" d="M293.665,175.16c-3.72,0-7.004-2.681-7.644-6.47c-0.201-1.156-13.788-76.208-71.44-97.495
	c-4.021-1.485-6.077-5.948-4.592-9.968c1.484-4.021,5.945-6.078,9.968-4.592c27.612,10.195,50.454,32.435,66.059,64.315
	c11.605,23.708,15.165,44.294,15.31,45.159c0.713,4.226-2.135,8.23-6.362,8.943C294.528,175.125,294.094,175.16,293.665,175.16z"/>
<path style="fill:#F44545;" d="M249.954,53.955c-0.166,1.086-0.838,2.028-1.8,2.576c-7.926,4.491-14.807,10.482-20.312,17.539
	c-2.577,3.301-4.843,6.84-6.788,10.575c-2.204,4.242-3.984,8.733-5.277,13.41c-0.714,2.566-3.849,3.57-5.815,1.769
	c-12.851-11.724-31.094-19.422-51.499-17.922c-0.89,0.072-1.749-0.352-2.225-1.107c-0.248-0.383-0.373-0.828-0.373-1.273
	c0-0.362,0.083-0.735,0.248-1.076c8.775-17.994,9.302-38.937,1.397-57.366c-0.259-0.6-0.145-1.304,0.31-1.78
	c0.372-0.404,0.921-0.579,1.469-0.497c3.622,0.59,7.264,0.869,10.875,0.869c2.08,0,4.16-0.093,6.219-0.279
	c13.886-1.262,27.193-6.726,38.058-15.821c0.724-0.61,1.718-0.776,2.597-0.414c0.797,0.331,1.366,1.045,1.511,1.904
	c3.301,18.605,14.145,34.995,29.883,45.363C249.592,51.192,250.171,52.58,249.954,53.955z"/>
<g>
	<path style="fill:#FB5858;" d="M249.954,53.955c-0.166,1.086-0.838,2.028-1.8,2.576c-7.926,4.491-14.807,10.482-20.312,17.539
		c-2.577,3.301-4.843,6.84-6.788,10.575c-12.458-9.602-28.911-15.542-47.07-14.217c-0.89,0.072-1.749-0.352-2.225-1.107
		c-0.248-0.383-0.373-0.828-0.373-1.273c0-0.362,0.083-0.735,0.248-1.076c7.254-14.869,8.868-31.766,4.749-47.577
		c13.886-1.262,27.193-6.726,38.058-15.821c0.724-0.61,1.718-0.776,2.597-0.414c0.797,0.331,1.366,1.045,1.511,1.904
		c3.301,18.605,14.145,34.995,29.883,45.363C249.592,51.192,250.171,52.58,249.954,53.955z"/>
	<path style="fill:#FB5858;" d="M71.51,79.453c-3.333,0-6.413-2.164-7.426-5.519c-1.239-4.103,1.082-8.433,5.186-9.673l58.26-17.591
		c4.102-1.241,8.433,1.082,9.673,5.186c1.239,4.103-1.082,8.433-5.186,9.673L73.757,79.12C73.01,79.345,72.253,79.453,71.51,79.453z
		"/>
	<path style="fill:#FB5858;" d="M119.034,128.178c-1.954,0-3.908-0.733-5.417-2.204c-3.069-2.992-3.131-7.905-0.139-10.974
		l17.116-17.554c2.991-3.069,7.905-3.131,10.974-0.139c3.069,2.992,3.131,7.905,0.139,10.974l-17.116,17.554
		C123.069,127.395,121.052,128.178,119.034,128.178z"/>
	<path style="fill:#FB5858;" d="M129.782,22.27c-0.517,0-1.041-0.052-1.567-0.159l-32.913-6.746
		c-4.199-0.861-6.905-4.962-6.044-9.161s4.967-6.906,9.161-6.044l32.913,6.746c4.199,0.861,6.905,4.962,6.044,9.161
		C136.623,19.739,133.39,22.27,129.782,22.27z"/>
</g>
<path style="fill:#F44545;" d="M356.47,427.714c-7.978,6.571-19.753,5.67-27.058-1.645l-41.586-41.586
	c-0.89-0.88-2.318-0.88-3.208,0l-1.242,1.242L242.711,426.4c-8.216,8.205-21.957,7.719-29.511-1.459
	c-6.571-7.978-5.67-19.753,1.645-27.058l41.586-41.586c0.89-0.89,0.89-2.318,0-3.197l-41.917-41.917
	c-8.205-8.216-7.719-21.957,1.459-29.511c7.978-6.571,19.753-5.66,27.058,1.645l41.586,41.586c0.476,0.476,1.117,0.704,1.738,0.662
	c0.538-0.031,1.055-0.248,1.469-0.662l41.907-41.907c8.216-8.216,21.957-7.729,29.511,1.449c6.571,7.978,5.66,19.753-1.645,27.058
	l-41.586,41.596c-0.89,0.88-0.89,2.307,0,3.197l41.917,41.917C366.134,406.419,365.648,420.16,356.47,427.714z"/>
<path style="fill:#4E5A61;" d="M390.192,162.811v33.898c0,9.561-7.823,17.384-17.384,17.384H199.635
	c-9.561,0-17.384-7.823-17.384-17.384v-33.898c0-9.561,7.823-17.384,17.384-17.384h173.174
	C382.369,145.427,390.192,153.25,390.192,162.811z"/>
<path style="fill:#5F6C75;" d="M390.192,162.811v16.949H240.507c-9.561,0-17.384-7.823-17.384-17.384v-16.949h149.685
	C382.369,145.427,390.192,153.25,390.192,162.811z"/>
<path style="fill:#FB5858;" d="M356.47,427.714c-7.978,6.571-19.753,5.67-27.058-1.645l-41.586-41.586
	c-0.89-0.88-2.318-0.88-3.208,0l-1.242,1.242c-1.956-8.03-2.99-16.432-2.99-25.061c0-12.303,2.101-24.12,5.97-35.098
	c0.538-0.031,1.055-0.248,1.469-0.662l41.907-41.907c8.216-8.216,21.957-7.729,29.511,1.449c6.571,7.978,5.66,19.753-1.645,27.058
	l-41.586,41.597c-0.89,0.88-0.89,2.307,0,3.197l41.917,41.917C366.134,406.419,365.648,420.16,356.47,427.714z"/>
<g>
</g>
<g>
</g>
<g>
</g>
<g>
</g>
<g>
</g>
<g>
</g>
<g>
</g>
<g>
</g>
<g>
</g>
<g>
</g>
<g>
</g>
<g>
</g>
<g>
</g>
<g>
</g>
<g>
</g>
</svg>
